HIERARCHY
ROOT Hips
{
	OFFSET -0.001795 -0.223333 0.028219
	CHANNELS 6 Xposition Yposition Zposition Zrotation Yrotation Xrotation 
	JOINT LeftUpLeg
	{
		OFFSET 0.069520 -0.091406 -0.006815
		CHANNELS 3 Zrotation Yrotation Xrotation
		JOINT LeftLeg
		{
			OFFSET 0.034277 -0.375199 -0.004496
			CHANNELS 3 Zrotation Yrotation Xrotation
			JOINT LeftFoot
			{
				OFFSET -0.013596 -0.397961 -0.043693
				CHANNELS 3 Zrotation Yrotation Xrotation
				JOINT LeftToe
				{
					OFFSET 0.026358 -0.055791 0.119288
					CHANNELS 3 Zrotation Yrotation Xrotation
					End Site
					{
						OFFSET 0.000000 0.000000 0.000000
					}
				}
			}
		}
	}
	JOINT RightUpLeg
	{
		OFFSET -0.067670 -0.090522 -0.004320
		CHANNELS 3 Zrotation Yrotation Xrotation
		JOINT RightLeg
		{
			OFFSET -0.038290 -0.382569 -0.008850
			CHANNELS 3 Zrotation Yrotation Xrotation
			JOINT RightFoot
			{
				OFFSET 0.015774 -0.398415 -0.042312
				CHANNELS 3 Zrotation Yrotation Xrotation
				JOINT RightToe
				{
					OFFSET -0.025372 -0.048144 0.123348
					CHANNELS 3 Zrotation Yrotation Xrotation
					End Site
					{
						OFFSET 0.000000 0.000000 0.000000
					}
				}
			}
		}
	}
	JOINT Spine
	{
		OFFSET -0.002533 0.108963 -0.026696
		CHANNELS 3 Zrotation Yrotation Xrotation
		JOINT Spine1
		{
			OFFSET 0.005487 0.135180 0.001092
			CHANNELS 3 Zrotation Yrotation Xrotation
			JOINT Spine2
			{
				OFFSET 0.001457 0.052922 0.025425
				CHANNELS 3 Zrotation Yrotation Xrotation
				JOINT Neck
				{
					OFFSET -0.002778 0.213870 -0.042857
					CHANNELS 3 Zrotation Yrotation Xrotation
					JOINT Head
					{
						OFFSET 0.005152 0.064970 0.051349
						CHANNELS 3 Zrotation Yrotation Xrotation
						End Site
						{
							OFFSET 0.000000 0.000000 0.000000
						}
					}
				}
				JOINT LeftShoulder
				{
					OFFSET 0.078845 0.121749 -0.034090
					CHANNELS 3 Zrotation Yrotation Xrotation
					JOINT LeftArm
					{
						OFFSET 0.090977 0.030469 -0.008868
						CHANNELS 3 Zrotation Yrotation Xrotation
						JOINT LeftForeArm
						{
							OFFSET 0.259612 -0.012772 -0.027456
							CHANNELS 3 Zrotation Yrotation Xrotation
							JOINT LeftHand
							{
								OFFSET 0.249234 0.008986 -0.001171
								CHANNELS 3 Zrotation Yrotation Xrotation
								End Site
								{
									OFFSET 0.000000 0.000000 0.000000
								}
							}
						}
					}
				}
				JOINT RightShoulder
				{
					OFFSET -0.081759 0.118833 -0.038615
					CHANNELS 3 Zrotation Yrotation Xrotation
					JOINT RightArm
					{
						OFFSET -0.096012 0.032551 -0.009143
						CHANNELS 3 Zrotation Yrotation Xrotation
						JOINT RightForeArm
						{
							OFFSET -0.253742 -0.013329 -0.021401
							CHANNELS 3 Zrotation Yrotation Xrotation
							JOINT RightHand
							{
								OFFSET -0.255298 0.007772 -0.005559
								CHANNELS 3 Zrotation Yrotation Xrotation
								End Site
								{
									OFFSET 0.000000 0.000000 0.000000
								}
							}
						}
					}
				}
			}
		}
	}
}
MOTION
Frames: 7
Frame Time: 0.050000
0.000000 0.925770 0.000000 1.575172 -7.414793 -1.936022 8.862690 0.084764 -2.033766 -4.493781 0.640581 4.896739 3.472297 8.429000 5.298276 0.000000 0.000000 0.000000 -10.216578 0.447241 -4.608139 5.564301 -0.473522 11.118186 -5.495202 -14.177385 3.284890 0.000000 0.000000 0.000000 1.239777 -0.579345 13.755285 6.128155 -1.793659 -15.178102 3.545768 4.314279 24.332342 0.354016 1.104119 -20.519224 0.000000 0.000000 0.000000 -26.397693 -6.232729 2.302805 -43.639880 -5.929104 -4.972400 -19.682405 -34.842528 7.955521 0.000000 0.000000 0.000000 23.164163 15.827292 7.699408 46.946783 15.830506 -0.483285 -7.567714 24.722152 -0.522914 0.000000 0.000000 0.000000 
0.000448 0.925995 -0.001094 1.319508 -7.722049 -1.564330 9.153001 0.100681 -1.611177 -3.976231 0.543859 4.133128 2.295447 6.023127 4.539946 0.000000 0.000000 0.000000 -9.785066 0.465133 -5.139235 5.651663 -0.480092 11.286490 -5.774628 -14.997371 4.273428 0.000000 0.000000 0.000000 1.370025 -0.603167 14.065094 6.154825 -1.748613 -15.816307 4.355770 3.967590 23.805593 1.043406 0.506243 -19.411450 0.000000 0.000000 0.000000 -27.146078 -6.183340 2.450911 -43.982418 -4.415168 -5.533329 -18.216058 -34.532043 7.451536 0.000000 0.000000 0.000000 22.898204 16.992747 8.156107 47.963553 14.937979 -0.675654 -8.631717 26.220825 -0.799637 0.000000 0.000000 0.000000 
0.000756 0.925710 -0.001780 1.354326 -6.268785 -1.584757 9.562864 0.073804 -2.018829 -4.124803 0.559449 5.021491 2.235513 5.749237 3.636622 0.000000 0.000000 0.000000 -10.232597 0.429349 -5.218379 6.240078 -0.631687 11.689389 -6.135789 -15.896082 5.141303 0.000000 0.000000 0.000000 1.138734 -0.594469 13.920773 7.137057 -2.015513 -15.965470 3.515870 3.251546 23.796219 0.824062 0.746672 -20.814877 0.000000 0.000000 0.000000 -27.668226 -5.617408 2.043850 -43.689041 -5.242869 -5.247981 -18.105459 -32.700704 6.992143 0.000000 0.000000 0.000000 22.199831 16.656970 7.958331 47.004574 15.576273 -0.491045 -8.074245 26.781544 -0.704495 0.000000 0.000000 0.000000 
0.001136 0.927042 -0.001974 1.576862 -6.579963 -1.932931 9.664832 0.099450 -1.394621 -4.214697 0.576699 4.786303 1.533763 4.522615 4.221236 0.000000 0.000000 0.000000 -10.373329 0.433525 -5.604183 5.998411 -0.571722 12.525702 -6.224873 -16.285355 6.335577 0.000000 0.000000 0.000000 0.158678 -0.477992 14.519284 8.145397 -2.360764 -15.768825 3.874002 3.774754 23.300561 0.940104 0.708479 -20.383348 0.000000 0.000000 0.000000 -27.573687 -5.798867 2.001095 -43.439962 -3.952794 -5.559715 -20.126679 -34.215890 7.951528 0.000000 0.000000 0.000000 22.431731 17.012861 8.266620 46.693651 14.951943 -0.703724 -9.178309 29.319692 -1.031633 0.000000 0.000000 0.000000 
0.001563 0.927085 -0.001713 1.566202 -5.755670 -2.220134 9.591669 0.083264 -1.290180 -3.954517 0.520234 4.743365 1.212531 3.797804 3.756364 0.000000 0.000000 0.000000 -10.509265 0.395894 -4.977406 5.994037 -0.600267 12.268284 -6.045235 -15.963929 6.715889 0.000000 0.000000 0.000000 0.429199 -0.535854 14.836492 8.217957 -2.420721 -15.315699 3.831515 3.869816 22.790094 0.915144 0.876036 -21.292164 0.000000 0.000000 0.000000 -26.882993 -5.815064 1.773990 -44.685066 -4.083981 -5.536715 -20.749606 -35.251629 8.400834 0.000000 0.000000 0.000000 22.364782 16.309737 8.014957 45.620445 15.272007 -0.595616 -9.886808 31.797251 -1.293392 0.000000 0.000000 0.000000 
0.002345 0.927381 -0.000986 1.682174 -4.966453 -2.302253 9.601680 0.066937 -1.005927 -3.884795 0.492848 4.100300 0.615075 2.805111 4.208138 0.000000 0.000000 0.000000 -10.809694 0.367895 -4.878403 5.953882 -0.618621 12.697988 -5.641614 -15.157730 6.819727 0.000000 0.000000 0.000000 0.202165 -0.533500 15.307189 8.651154 -2.478987 -15.961568 4.110171 4.526120 22.939681 1.664700 0.577023 -21.305143 0.000000 0.000000 0.000000 -27.335872 -6.404014 1.714045 -44.932785 -3.844926 -5.541798 -21.591110 -35.815177 8.738853 0.000000 0.000000 0.000000 21.856823 16.160223 8.233863 44.701665 16.357530 -0.342285 -12.563430 32.639611 -1.979230 0.000000 0.000000 0.000000 
0.003605 0.927529 -0.000026 1.777872 -3.952803 -2.251863 9.322130 0.033209 -1.092228 -3.800241 0.464749 3.616877 0.262563 2.247205 4.439164 0.000000 0.000000 0.000000 -11.197272 0.334374 -4.736453 6.340350 -0.735895 13.120023 -5.574285 -14.956978 6.656034 0.000000 0.000000 0.000000 0.557486 -0.607852 15.506935 8.563137 -2.405708 -16.193562 4.178020 4.781892 22.788607 2.499872 0.173550 -21.280088 0.000000 0.000000 0.000000 -27.668859 -6.394035 1.364147 -45.343205 -3.500832 -5.606176 -22.798288 -36.979776 9.411264 0.000000 0.000000 0.000000 21.832673 16.482359 8.679250 42.806260 18.725973 0.349331 -15.189744 30.200692 -2.436119 0.000000 0.000000 0.000000 
